<svg id="Layer_1" enable-background="new 0 0 512.066 512.066" height="512" viewBox="0 0 512.066 512.066" width="512" xmlns="http://www.w3.org/2000/svg"><path d="m504.112 148.22c-7.008-33.404-29.805-128.878-31.573-136.277-1.782-10.194-17.241-17.533-26.521-6.031-35.863 46.25-100.179 76.5-191.24 89.918-113.838 14.806-178.507 128.977-148.71 235.733-56.42 38.699-94.554 93.774-105.894 162.906-2.627 19.702 25.286 24.671 29.553 5.158 9.735-58.97 40.011-104.612 87.13-138.818 33.677 73.586 111.131 106.796 191.611 95.321.154-.02.307-.042.46-.066 150.249-22.671 229.573-155.76 195.184-307.844zm-373.499 154.215c-12.38-84.19 41.328-165.787 128.618-176.938 72.084-10.622 129.236-31.597 170.723-62.543-48.262 147.201-177.806 182.735-297.242 251.312-.833-3.887-1.539-7.83-2.099-11.831zm315.322 39.659c-32.476 47.19-83.765 75.175-141.48 84.305-73.538 9.425-134.481-18.723-162.387-82.658 127.872-74.579 259.687-108.6 314.935-267.182 25.43 100.434 43.379 185.449-11.068 265.535z"/></svg>